<?xml version="1.0" encoding="UTF-8" standalone="no"?>
<svg
   xmlns:dc="http://purl.org/dc/elements/1.1/"
   xmlns:cc="http://creativecommons.org/ns#"
   xmlns:rdf="http://www.w3.org/1999/02/22-rdf-syntax-ns#"
   xmlns:svg="http://www.w3.org/2000/svg"
   xmlns="http://www.w3.org/2000/svg"
   xmlns:sodipodi="http://sodipodi.sourceforge.net/DTD/sodipodi-0.dtd"
   xmlns:inkscape="http://www.inkscape.org/namespaces/inkscape"
   version="1.1"
   id="svg4138"
   viewBox="0 0 169.60689 70.178327"
   height="19.805883mm"
   width="47.866833mm"
   sodipodi:docname="coredump_logo-v1.svg"
   inkscape:version="0.92.1 r">
  <sodipodi:namedview
     pagecolor="#ffffff"
     bordercolor="#666666"
     borderopacity="1"
     objecttolerance="10"
     gridtolerance="10"
     guidetolerance="10"
     inkscape:pageopacity="0"
     inkscape:pageshadow="2"
     inkscape:window-width="1920"
     inkscape:window-height="1015"
     id="namedview18"
     showgrid="false"
     inkscape:zoom="6.9148872"
     inkscape:cx="90.457007"
     inkscape:cy="37.428441"
     inkscape:window-x="0"
     inkscape:window-y="0"
     inkscape:window-maximized="1"
     inkscape:current-layer="svg4138" />
  <defs
     id="defs4140" />
  <metadata
     id="metadata4143">
    <rdf:RDF>
      <cc:Work
         rdf:about="">
        <dc:format>image/svg+xml</dc:format>
        <dc:type
           rdf:resource="http://purl.org/dc/dcmitype/StillImage" />
        <dc:title />
      </cc:Work>
    </rdf:RDF>
  </metadata>
  <g
     transform="translate(-226.34201,-276.45928)"
     id="layer1"
     style="fill:#fffffa;fill-opacity:1">
    <text
       id="text5123"
       y="376.36221"
       x="475.5"
       style="font-style:normal;font-variant:normal;font-weight:normal;font-stretch:normal;font-size:10px;line-height:125%;font-family:OCRB;-inkscape-font-specification:OCRB;text-align:center;letter-spacing:0px;word-spacing:0px;text-anchor:middle;fill:#fffffa;fill-opacity:1;stroke:none;stroke-width:1px;stroke-linecap:butt;stroke-linejoin:miter;stroke-opacity:1"
       xml:space="preserve"><tspan
         y="376.36221"
         x="475.5"
         id="tspan5125"
         style="fill:#fffffa;fill-opacity:1" /></text>
    <path
       id="path4855-9"
       d="m 275.29908,318.21807 c -0.20089,-0.20089 -4.35351,3.70013 -4.35351,4.08984 0,0.18942 0.3029,0.22829 0.67383,0.0859 0.99119,-0.38035 0.82305,0.31779 -0.3418,1.41211 -1.49156,1.40125 -4.06681,2.34765 -6.38672,2.34765 -1.12075,0 -2.03906,0.20193 -2.03906,0.44922 0,0.70848 4.87787,0.52561 6.5,-0.24414 0.80573,-0.38235 2.02313,-1.27843 2.70508,-1.99023 0.68195,-0.7118 1.47741,-1.20315 1.76758,-1.0918 0.33266,0.12765 0.72701,-0.74523 1.0664,-2.36328 0.29602,-1.41131 0.4797,-2.62381 0.4082,-2.69531 z"
       style="fill:#fffffa;fill-opacity:1" />
    <path
       id="path4853-9"
       d="m 255.38698,317.25322 c 0.14435,-0.0537 0.39841,-0.0418 0.77343,0.0586 0.58951,0.15777 2.40602,0.28897 4.03516,0.29297 l 2.96094,0.006 0.0586,1.57422 c 0.0568,1.51236 -0.003,1.57422 -1.52734,1.57422 -1.08472,0 -1.48498,-0.16462 -1.26563,-0.51953 0.19458,-0.31484 0.12406,-0.39671 -0.17969,-0.20898 -0.4955,0.30623 -0.84296,0.1856 -3.44726,-1.19141 -1.28141,-0.67754 -1.84127,-1.42474 -1.4082,-1.58594 z m 11.36328,0.35742 c 0.90673,0 1.56397,0.0721 1.46093,0.16016 -0.50574,0.43254 -3.10937,0.66661 -3.10937,0.2793 0,-0.24111 0.74171,-0.43946 1.64844,-0.43946 z"
       style="fill:#fffffa;fill-opacity:1" />
    <path
       id="path4847-3"
       d="m 245.02174,310.40557 c -0.10174,0.0234 -0.1543,0.18196 -0.1543,0.47656 0,1.77995 4.57816,8.62941 7.57618,11.33594 2.04002,1.84165 2.20413,2.13671 1.1914,2.13671 -1.39313,0 -0.57966,1.15887 1.4707,2.09571 3.78559,1.72969 4.09324,1.32734 1.61719,-2.11914 -0.95281,-1.32623 -1.87963,-2.18045 -2.22265,-2.04883 -0.9502,0.36463 -5.29543,-4.72935 -7.20118,-8.44141 -1.21041,-2.35766 -1.97212,-3.50578 -2.27734,-3.43554 z"
       style="fill:#fffffa;fill-opacity:1" />
    <path
       id="path4843-2"
       d="m 245.86549,291.54619 c -0.10407,-0.0208 -0.26398,0.0366 -0.47656,0.16797 -0.5332,0.32953 -1.86914,4.14404 -1.86914,5.33594 0,0.48707 -0.39642,0.96476 -0.91211,1.09961 -0.57475,0.15031 -0.83749,0.50988 -0.70899,0.9707 0.11211,0.4021 0.34444,1.43918 0.51563,2.30469 0.17118,0.86552 0.40816,1.73507 0.52539,1.93359 0.11722,0.19856 0.4364,0.28681 0.71094,0.19531 0.42646,-0.14215 0.83313,-1.2799 1.72265,-4.82617 0.093,-0.37093 -0.0835,-0.6243 -0.39258,-0.5625 -0.85348,0.1707 -0.66883,-2.08025 0.35547,-4.33789 0.66517,-1.46614 0.84152,-2.21897 0.5293,-2.28125 z"
       style="fill:#fffffa;fill-opacity:1" />
    <path
       id="path4841-4"
       d="m 259.19166,290.44853 c -0.41245,0.25491 3.18118,4.68126 3.80078,4.68164 0.2001,1.2e-4 0.23878,-0.20192 0.0859,-0.44921 -0.15283,-0.24729 -0.0183,-0.44922 0.29883,-0.44922 0.92382,0 5.4482,5.03984 6.58789,7.33789 0.9328,1.88091 1.88086,2.74807 1.88086,1.72265 0,-0.87367 -3.81334,-6.18198 -5.90039,-8.21484 -1.23948,-1.20729 -2.02072,-2.19531 -1.73633,-2.19531 0.28437,0 0.44312,-0.21952 0.35352,-0.48828 -0.20026,-0.60076 -4.8322,-2.27837 -5.3711,-1.94532 z"
       style="fill:#fffffa;fill-opacity:1" />
    <path
       id="path4830-3"
       d="m 256.43776,278.68291 -0.10352,29.26172 -3.37305,0 -3.37109,0 -0.0957,-10.79102 c -0.0517,-5.93496 -0.10113,-13.07839 -0.11133,-15.875 -0.0119,-3.27089 -0.17952,-4.9854 -0.46875,-4.80664 -0.24729,0.15283 -0.44922,1.78742 -0.44922,3.63281 0,3.23 -0.046,3.37434 -1.23633,3.89258 -2.80423,1.22093 -11.38654,6.78049 -12.59961,8.16211 -2.73352,3.1133 -4.14843,7.59098 -4.14844,13.125 l 0,2.83594 -4.04307,0.96889 c 0,0 -0.25254,0.40001 0.0631,0.55785 6.93276,0.65934 3.38428,-0.47786 4.27095,0.0123 0.24715,0.24715 1.46562,5.18084 1.49024,6.0332 -2.00437,0.24528 -5.82433,1.66616 -5.82433,1.66616 0.50904,0.76876 2.47155,-0.15914 6.83995,0.0272 l 0.73633,1.82227 c 1.97617,4.88395 8.06022,12.27694 12.54101,15.24219 l 1.81446,1.20117 -0.0645,5.99416 0.26097,4.9918 0.92606,-0.8929 c 0,0 0.32272,-1.565 0.32272,-4.2884 0,0 0.0439,-5.04042 0.78516,-4.75583 0.43275,0.16616 1.95112,0.62606 3.37304,1.02148 l 2.58594,0.71875 0,3.3535 -0.15244,3.1884 1.05804,-0.5357 c -0.0713,-0.2292 0.10237,-2.0876 0.0835,-3.4519 0.61868,-5.02649 -0.45579,3.83844 0.21796,-1.01524 0.22698,-1.49435 0.40257,-1.68554 1.53906,-1.68554 1.91585,0 4.68167,-1.22356 8.94336,-3.95313 7.3461,-4.70512 9.58636,-7.8551 10.29883,-14.47851 l 0.26758,-2.47657 117.11118,0.83612 c 0.26169,-0.55168 -1.78906,-0.57226 -1.78906,-0.57226 -25.4768,-0.78175 -111.17143,-1.38693 -138.87681,-1.38693 l -1.16797,-1.01172 c -1.42319,-1.23317 -2.5624,-4.28977 -1.99414,-5.35156 24.06341,-1.1518 -6.46073,-2.18658 25.54568,-0.83003 0.0895,-0.55623 -0.0533,-0.3956 -0.29958,-0.80474 l -2.03125,-4.28711 c -1.11694,-2.35789 -2.69616,-5.2627 -3.50977,-6.45508 -3.20979,-4.7041 -9.66908,-10.4846 -13.22851,-11.83789 l -1.16993,-0.44531 0.38867,-3.29297 c -0.60093,-4.28133 -0.47768,-3.03926 -1.35546,-3.26367 z m -9.20899,6.68945 c 1.31129,-0.53031 1.27053,0.9197 1.10547,6.72266 -0.10727,3.77117 -0.42456,7.84891 -0.70508,9.06055 -1.36509,5.89616 2.7613,14.99482 8.57813,18.9121 4.54521,3.06093 9.22289,3.12921 11.89843,0.17383 2.88653,-3.18843 2.68763,-3.07926 5.6504,-3.07226 3.87975,0.01 4.0052,0.13491 3.46484,3.49023 -0.24658,1.53113 -0.64722,3.309 -0.89063,3.94922 -0.92623,2.43616 -3.10072,4.97903 -5.26367,6.15625 -10.42919,5.67628 -26.32734,-6.49003 -30.70312,-23.49609 -0.79974,-3.10828 -0.94336,-4.6596 -0.76953,-8.31641 0.30308,-6.37609 1.91885,-9.83749 5.82617,-12.47656 0.78325,-0.52903 1.3715,-0.92675 1.80859,-1.10352 z m 10.22852,1.56641 1.20898,0.30469 c 2.46597,0.61892 7.8039,5.01313 10.76953,8.86718 2.2535,2.9286 6.00586,9.96443 6.00586,11.25977 0,0.67533 -0.41137,0.79883 -2.66601,0.79883 l -2.66602,0 -1.5918,-3.3086 c -1.92378,-3.99972 -5.42959,-7.71779 -8.71875,-9.24609 l -2.34179,-1.08789 0,-3.79297 z m -17.21485,2.98047 c 0.0332,0.0867 -0.1326,0.40123 -0.46679,1.02148 -1.41741,2.63067 -1.60452,3.53569 -1.79688,8.68555 -0.0785,2.10196 0.10005,4.7598 0.39649,5.90625 0.31515,1.2188 0.37755,2.33868 0.15039,2.69726 -0.21369,0.33728 -0.38868,0.81521 -0.38867,1.0625 0,0.24729 0.17412,0.17536 0.38671,-0.16015 0.28668,-0.45246 0.47107,-0.47333 0.71289,-0.082 0.17931,0.29014 0.20676,0.64669 0.0606,0.79297 -0.14626,0.14625 -0.0246,0.5592 0.27149,0.91601 0.29613,0.35681 0.58081,0.93874 0.63281,1.29297 0.052,0.35423 0.51411,1.44486 1.02539,2.42578 0.51129,0.98091 0.83056,1.78516 0.70898,1.78516 -0.12159,0 0.33562,0.62525 1.01758,1.39062 0.68195,0.76538 1.24024,1.58449 1.24024,1.82031 0,0.45849 2.84282,4.12676 4.75586,6.13672 1.24396,1.30699 7.09017,5.60654 7.83398,5.76172 0.24729,0.0516 1.25889,0.45261 2.24805,0.89063 0.98916,0.43803 2.20268,0.86286 2.69726,0.94336 0.49458,0.0805 1.7787,0.2959 2.85352,0.48046 l 1.95508,0.33594 -2.4043,1.30274 c -1.91173,1.03513 -3.04778,1.31963 -5.55078,1.39453 -3.33613,0.0999 -6.56857,-0.52955 -7.49219,-1.46094 -0.30654,-0.30911 -0.87062,-0.56345 -1.25391,-0.56445 -0.3833,-10e-4 -1.33151,-0.59693 -2.10742,-1.32422 -0.77591,-0.72729 -1.53411,-1.19831 -1.68555,-1.04688 -0.15143,0.15143 -0.27539,0.0258 -0.27539,-0.27734 0,-0.30313 -0.17141,-0.4439 -0.38085,-0.31445 -0.53652,0.33158 -2.85366,-2.18625 -2.43555,-2.64649 0.18893,-0.20793 0.11789,-0.24924 -0.15821,-0.0918 -0.27606,0.15746 -0.8838,-0.14843 -1.3496,-0.67969 -0.55487,-0.63284 -0.61373,-0.83952 -0.17188,-0.59961 0.37094,0.20139 -0.28632,-0.63124 -1.46094,-1.84961 -2.06074,-2.13746 -2.7415,-3.25629 -1.57422,-2.58984 0.30912,0.17649 -0.0342,-0.3182 -0.76171,-1.09961 -0.72756,-0.78142 -1.37285,-1.7703 -1.43555,-2.19727 -0.0627,-0.42696 -0.32714,-0.84865 -0.58789,-0.93555 -0.26076,-0.0869 -0.47461,-0.5328 -0.47461,-0.99218 0,-0.45938 -0.21633,-0.96956 -0.48047,-1.13282 -0.26417,-0.16325 -0.37662,-0.56653 -0.25,-0.89648 0.12661,-0.32995 0.0366,-0.66359 -0.19922,-0.74219 -0.23584,-0.0786 -0.50124,-0.54725 -0.58984,-1.04101 -0.36937,-2.05905 -0.88603,-4.54002 -1.07813,-5.16993 -0.46388,-1.52105 -0.0934,-10.04988 0.46094,-10.60351 0.18547,-0.18522 0.33789,-0.68239 0.33789,-1.10547 0,-0.42309 0.30289,-1.02223 0.67383,-1.33008 0.37093,-0.30785 0.67578,-0.91874 0.67578,-1.35742 0,-0.94329 3.01118,-3.72385 3.62305,-3.3457 0.23248,0.14369 0.42187,0.095 0.42187,-0.10742 0,-0.20241 0.42466,-0.63311 0.94336,-0.95704 0.46145,-0.28818 0.69336,-0.42844 0.72656,-0.34179 z m 20.14454,8.06836 c 0.50952,-0.19553 1.49443,0.46258 3.17578,2.12304 1.34047,1.32382 2.4375,2.63963 2.4375,2.92383 0,0.28422 0.37285,1.00011 0.82812,1.58984 0.45526,0.58977 0.94222,1.52759 1.08203,2.08399 0.24744,0.98474 0.15917,1.01172 -3.27539,1.01172 -1.94057,0 -3.65185,-0.20388 -3.80469,-0.45117 -0.15282,-0.24729 -0.12782,-0.44922 0.0566,-0.44922 0.18448,0 -0.23503,-0.59516 -0.93165,-1.32227 -0.91327,-0.95301 -1.16853,-1.5482 -0.91601,-2.13476 0.19267,-0.44752 0.37158,-1.31927 0.39648,-1.9375 0.0249,-0.61822 0.20815,-1.37643 0.40821,-1.68555 0.20006,-0.30911 0.23788,-0.7666 0.084,-1.01563 -0.15391,-0.24904 0.0527,-0.58043 0.45899,-0.73632 z m -2.47852,7.70703 c 0.24775,-0.15312 0.65837,0.26814 0.91211,0.93554 0.56777,1.49334 0.32768,1.81597 -0.63477,0.85352 -0.83554,-0.83555 -0.92146,-1.39097 -0.27734,-1.78906 z"
       style="fill:#fffffa;fill-opacity:1" />
    <text
       id="text4913-9-7-9-5"
       y="311.22037"
       x="338.16034"
       style="font-style:normal;font-variant:normal;font-weight:normal;font-stretch:normal;font-size:20px;line-height:125%;font-family:OCRB;-inkscape-font-specification:'OCRB, Normal';text-align:center;letter-spacing:0px;word-spacing:0px;writing-mode:lr-tb;text-anchor:middle;fill:#fffffa;fill-opacity:1;stroke:none;stroke-width:1px;stroke-linecap:butt;stroke-linejoin:miter;stroke-opacity:1"
       xml:space="preserve"><tspan
         style="font-style:normal;font-variant:normal;font-weight:normal;font-stretch:normal;font-size:20px;line-height:125%;font-family:OCRB;-inkscape-font-specification:'OCRB, Normal';text-align:center;writing-mode:lr-tb;text-anchor:middle;fill:#fffffa;fill-opacity:1"
         y="311.22037"
         x="338.16034"
         id="tspan4915-2-6-1-7">coredump</tspan></text>
    <text
       id="text4913-9-7-9-5-7"
       y="330.22513"
       x="342.49536"
       style="font-style:normal;font-variant:normal;font-weight:normal;font-stretch:normal;font-size:20px;line-height:125%;font-family:OCRB;-inkscape-font-specification:'OCRB, Normal';text-align:center;letter-spacing:0px;word-spacing:0px;writing-mode:lr-tb;text-anchor:middle;fill:#fffffa;fill-opacity:1;stroke:none;stroke-width:1px;stroke-linecap:butt;stroke-linejoin:miter;stroke-opacity:1"
       xml:space="preserve"><tspan
         style="font-style:normal;font-variant:normal;font-weight:normal;font-stretch:normal;font-size:11.25px;line-height:125%;font-family:OCRB;-inkscape-font-specification:'OCRB, Normal';text-align:center;writing-mode:lr-tb;text-anchor:middle;fill:#fffffa;fill-opacity:1"
         y="330.22513"
         x="342.49536"
         id="tspan4915-2-6-1-7-8">Rapperswil CH</tspan></text>
  </g>
</svg>
