<svg xmlns="http://www.w3.org/2000/svg" viewBox="0 0 600.62 202.07"><defs><style>.cls-1{fill:#e63312;}</style></defs><title>Inria_label50_rvb_FW</title><g id="Calque_2" data-name="Calque 2"><g id="Calque_1-2" data-name="Calque 1"><path class="cls-1" d="M74,30.89A77.65,77.65,0,0,0,88.92,19C92.57,15.32,76.5,17,72.63,20.27A109.48,109.48,0,0,0,60.28,32.34C58,35,69,33.91,74,30.89Zm293.94,83.39c2.86,1.71,2.73-7.22-3-10.8C344.31,90.65,288,113,266.62,115.55c-4,.48-5.46-.53-4.52-3.25,1.81-5.24,9-14.87,10.39-18.19,1.36-3.17,1.17-14.06-14.94-14.06-13.16,0-25.24,6.11-33.72,13.81-8.09,6.9-23.75,20.54-33.4,20.54-10,0,19.26-30.16,20.87-31.69,4.35-4.08-9.36-3.07-15.11,1.31-2.3,1.75-11.49,11.58-17.24,21.1-16.63,11.49-33.18,14.16-25.3,4.61,4.19-5.09,11.27-11.91,16.15-17.31,6.8-7.55,5.57-12.51-9.45-12.51-20.11,0-22.23,1.75-33.58,15-2.1,2.47-1,8.66,1.16,6.51C141.54,88,141.23,89.1,159.24,89.1c-2.9,3.08-8.06,6.15-16.82,17.26-7.8,9.91-2.7,17.93,8.38,17.93,6.13,0,15.27-2.87,23.64-8.77-1,5.17,1.07,8.86,9,8.86,9.14,0,19.58-5.44,28.23-11.48-1.08,6.56,2.29,11.48,12,11.48,7.44,0,16.11-2.92,25.06-10.68,0,5.93,4.13,10.64,11.93,10.64C279.58,124.33,345.12,100.53,367.93,114.28Zm-139.22,1.56c-12.44,0,12.48-28.44,28.71-28.44C267.13,87.4,240.71,115.84,228.71,115.84Zm-9.87-44a128.11,128.11,0,0,0,19.23-15.16c3.66-3.71-12.42-2.06-16.29,1.25a159.22,159.22,0,0,0-15,14.53C204.5,75.14,213.82,74.87,218.83,71.85ZM120.6,102.14c-4.87,4.76-15.54,12.73-24.87,12.73-6.9,0,6.84-12.36,13.64-22.32,6.49-9.52,1.18-12.37-4.18-12.37-13.28,0-26.25,9.32-35,15.87,2.66-3.56,6.79-8.12,11.2-13.94C83.8,78.89,69.16,80,65.41,85c-1.19,1.56-2.51,3.31-3.91,5.18-12.71,15.27-31.9,25.58-41.32,25.58-5.25,0-7.16-3.62-3.89-10.45,7.88-16.48,35-47.79,49.77-61.5,6.7-6.27-13.43-3.72-18,.92C27.58,65.28,7,88.24,1.2,106.1-2,116,1,124.85,13.23,124.85c10.08,0,21.24-5,30.71-10.92l-6.17,8.39c-2.67,3.62,10.89,2.3,13.75-1.35,10.73-13.72,36.5-30.6,43.67-30.6,6.53,0-16,16.86-15.75,27.17.26,13.55,31.65,5.25,42.3-8.7C123.4,106.68,122.1,100.69,120.6,102.14Zm13.73,44.5c-2-.17-3.35-.37-3.35-1.94,0-1.18.91-1.77,2.81-1.77s2.68.64,3.15,1.6c.25.39.37.47.81.27l.84-.34c.39-.17.52-.42.3-.86-.74-1.6-2.29-2.66-5.14-2.66-3.27,0-4.95,1.53-4.95,3.81,0,3.17,2.53,3.59,5,3.84,2.07.2,3.27.47,3.27,1.94,0,1.21-1,1.87-3.08,1.87-1.72,0-2.83-.49-3.32-1.77-.2-.44-.39-.49-.79-.37l-.84.29c-.44.15-.54.39-.37.79.76,2,2.58,3,5.39,3,3.45,0,5.14-1.6,5.14-3.94C139.19,147.53,137.13,146.92,134.32,146.65Zm-17-5.34h-1c-.44,0-.59.15-.59.59v9.47a.53.53,0,0,1-.37.57,9,9,0,0,1-2.78.42c-2.12,0-3.1-1-3.1-2.93V141.9c0-.44-.15-.59-.57-.59h-1c-.44,0-.59.15-.59.59v7.6c0,3.05,1.55,4.87,5,4.87a12.47,12.47,0,0,0,4.7-.84,1.22,1.22,0,0,0,.94-1.38V141.9C117.94,141.45,117.79,141.31,117.35,141.31Zm9.82-.37h-.79a13.44,13.44,0,0,0-4.5.76,1.21,1.21,0,0,0-.94,1.38v10.34c0,.44.15.59.57.59h1c.44,0,.59-.15.59-.59v-9.55c0-.22,0-.37.34-.49a9.29,9.29,0,0,1,2.83-.42h.86c.44,0,.59-.15.59-.59v-.84C127.75,141.09,127.61,140.94,127.16,140.94Zm-63.5,0c-3.64,0-5.56,1.94-5.56,5.27v3.05c0,3,1.62,5.12,5.46,5.12,2.83,0,4.43-1,5.29-2.53.27-.42.22-.74-.22-1l-.66-.34c-.44-.25-.66-.2-1,.22a3.64,3.64,0,0,1-3.42,1.7c-2.17,0-3.3-1.08-3.3-3v-1.18h8c.69,0,.91-.34.91-.86V146C69.22,143.13,67.45,140.94,63.66,140.94ZM67,146.62H60.29v-.71c0-1.92,1.16-3.1,3.37-3.1S67,144,67,145.91Zm-28.44-5.68a11.91,11.91,0,0,0-4.7.84,1.22,1.22,0,0,0-.94,1.38v10.26c0,.44.15.59.57.59h1c.44,0,.59-.15.59-.59v-9.57a.41.41,0,0,1,.3-.44A9.23,9.23,0,0,1,38.3,143c2.12,0,3.08,1,3.08,2.93v7.53c0,.44.15.59.59.59h1c.44,0,.59-.15.59-.59v-7.6C43.59,142.76,42,140.94,38.59,140.94Zm17.86.37h-.79c-.69,0-.86.12-1,.59L51.78,149c-.37,1-.59,2.14-.66,2.34H51c-.1-.2-.32-1.35-.69-2.36l-2.88-7.11c-.17-.47-.34-.59-1-.59h-.74c-.59,0-.71.15-.49.69l4.75,11.52a.73.73,0,0,0,.81.54h.62a.73.73,0,0,0,.81-.54L56.92,142C57.14,141.43,57,141.31,56.45,141.31Zm-27.11,0h-1c-.44,0-.59.15-.59.59v11.52c0,.44.15.59.59.59h1c.44,0,.59-.15.59-.59V141.9C29.93,141.45,29.78,141.31,29.34,141.31Zm62.47,0H88.59v-2.36c0-.44-.15-.59-.59-.59H87c-.44,0-.57.15-.57.59v2.36h-2c-.44,0-.59.15-.59.59v.86c0,.44.15.59.59.59h2v5.78c0,4.11,1.45,5.32,5.36,5.22.47,0,.62-.15.62-.59v-.89c0-.47-.15-.59-.62-.59-2.39,0-3.17-.52-3.17-3.2v-5.73h3.22c.42,0,.57-.15.57-.59v-.86C92.37,141.45,92.23,141.31,91.81,141.31Zm7.58-.37c-3.64,0-5.56,1.94-5.56,5.27v3.05c0,3,1.62,5.12,5.46,5.12,2.83,0,4.43-1,5.29-2.53.27-.42.22-.74-.22-1l-.66-.34c-.44-.25-.66-.2-1,.22a3.64,3.64,0,0,1-3.42,1.7c-2.17,0-3.3-1.08-3.3-3v-1.18h8c.69,0,.91-.34.91-.86V146C104.95,143.13,103.18,140.94,99.39,140.94Zm3.37,5.68H96v-.71c0-1.92,1.16-3.1,3.37-3.1s3.37,1.18,3.37,3.1Zm-25.46-5.68a11.91,11.91,0,0,0-4.7.84,1.22,1.22,0,0,0-.94,1.38v10.26c0,.44.15.59.57.59h1c.44,0,.59-.15.59-.59v-9.57a.41.41,0,0,1,.3-.44A9.23,9.23,0,0,1,77,143c2.12,0,3.08,1,3.08,2.93v7.53c0,.44.15.59.59.59h1c.44,0,.59-.15.59-.59v-7.6C82.29,142.76,80.74,140.94,77.29,140.94Zm79.57-5.14h-1c-.44,0-.59.15-.59.59v5.09a12.81,12.81,0,0,0-3.45-.54c-3.35,0-5,1.82-5,5v3.47c0,3.15,1.65,4.95,5.27,4.95a11.71,11.71,0,0,0,4.4-.76c.79-.32,1-.54,1-1.35V136.38C157.43,135.94,157.28,135.79,156.86,135.79Zm-1.62,15.7c0,.27,0,.34-.34.47a8.25,8.25,0,0,1-2.63.39c-2.17,0-3.25-1-3.25-3V146c0-2,1-3.08,3.2-3.08a9.8,9.8,0,0,1,3,.54ZM28.9,136.66h-.15c-.89,0-1.18.3-1.18,1.18v.2c0,.91.3,1.18,1.18,1.18h.15c.91,0,1.18-.29,1.18-1.18v-.2C30.08,137,29.81,136.66,28.9,136.66Zm296.49,4.28h-.79a13.44,13.44,0,0,0-4.5.76,1.21,1.21,0,0,0-.94,1.38v10.34c0,.44.15.59.57.59h1c.44,0,.59-.15.59-.59v-9.55a.43.43,0,0,1,.34-.49,9.29,9.29,0,0,1,2.83-.42h.86c.44,0,.59-.15.59-.59v-.84C326,141.09,325.83,140.94,325.39,140.94Zm-27,0a10.7,10.7,0,0,0-4.38.94,4.76,4.76,0,0,0-3.15-.94,10,10,0,0,0-4.16.81,1.24,1.24,0,0,0-.94,1.4v10.26c0,.44.15.59.57.59h1c.44,0,.59-.15.59-.59v-9.55a.48.48,0,0,1,.29-.52,6.5,6.5,0,0,1,2.31-.39,2.49,2.49,0,0,1,2.81,2.83v7.63c0,.44.15.59.59.59h1c.42,0,.57-.15.57-.59v-7.7a4.9,4.9,0,0,0-.37-2.09,7.17,7.17,0,0,1,2.9-.66c1.87,0,2.76.94,2.76,2.83v7.63c0,.44.15.59.59.59h1c.42,0,.57-.15.57-.59v-7.7C303.07,142.66,301.65,140.94,298.42,140.94Zm30.46-4.28h-.15c-.89,0-1.18.3-1.18,1.18v.2c0,.91.3,1.18,1.18,1.18h.15c.91,0,1.18-.29,1.18-1.18v-.2C330.06,137,329.79,136.66,328.88,136.66Zm-17.71,4.28c-3.64,0-5.56,1.94-5.56,5.27v3.05c0,3,1.62,5.12,5.46,5.12,2.83,0,4.43-1,5.29-2.53.27-.42.22-.74-.22-1l-.66-.34c-.44-.25-.66-.2-1,.22a3.64,3.64,0,0,1-3.42,1.7c-2.17,0-3.3-1.08-3.3-3v-1.18h8c.69,0,.91-.34.91-.86V146C316.73,143.13,315,140.94,311.17,140.94Zm3.37,5.68h-6.74v-.71c0-1.92,1.16-3.1,3.37-3.1s3.37,1.18,3.37,3.1Zm-144.15-5.31h-1c-.44,0-.59.15-.59.59v9.47a.53.53,0,0,1-.37.57,9,9,0,0,1-2.78.42c-2.12,0-3.1-1-3.1-2.93V141.9c0-.44-.15-.59-.57-.59h-1c-.44,0-.59.15-.59.59v7.6c0,3.05,1.55,4.87,5,4.87a12.47,12.47,0,0,0,4.7-.84,1.21,1.21,0,0,0,.93-1.38V141.9C171,141.45,170.83,141.31,170.39,141.31Zm194.51-.37c-3.64,0-5.56,1.94-5.56,5.27v3.05c0,3,1.62,5.12,5.46,5.12,2.83,0,4.43-1,5.29-2.53.27-.42.22-.74-.22-1l-.66-.34c-.44-.25-.66-.2-1,.22a3.64,3.64,0,0,1-3.42,1.7c-2.17,0-3.3-1.08-3.3-3v-1.18h8c.69,0,.91-.34.91-.86V146C370.46,143.13,368.69,140.94,364.9,140.94Zm3.37,5.68h-6.74v-.71c0-1.92,1.16-3.1,3.37-3.1s3.37,1.18,3.37,3.1Zm-26-4.92a11,11,0,0,0-4.31-.76c-3.67,0-5.41,1.8-5.41,5.09v3.47c0,3.05,1.55,4.87,5,4.87a10.12,10.12,0,0,0,3.47-.69v5.14c0,.44.15.59.59.59h1c.42,0,.57-.15.57-.59V143.05C343.2,142.24,343.08,142,342.29,141.7Zm-1.28,10a9.78,9.78,0,0,1-3.15.64c-2.07,0-3.08-1-3.08-2.93V146.1c0-2.12,1.06-3.15,3.37-3.15a8.1,8.1,0,0,1,2.46.37c.34.15.39.22.39.52Zm15.16-10.41h-1c-.44,0-.59.15-.59.59v9.47a.53.53,0,0,1-.37.57,9,9,0,0,1-2.78.42c-2.12,0-3.1-1-3.1-2.93V141.9c0-.44-.15-.59-.57-.59h-1c-.44,0-.59.15-.59.59v7.6c0,3.05,1.55,4.87,5,4.87a12.47,12.47,0,0,0,4.7-.84,1.21,1.21,0,0,0,.94-1.38V141.9C356.76,141.45,356.61,141.31,356.16,141.31Zm-26.84,0h-1c-.44,0-.59.15-.59.59v11.52c0,.44.15.59.59.59h1c.44,0,.59-.15.59-.59V141.9C329.91,141.45,329.76,141.31,329.32,141.31Zm-110.56-.37a11.9,11.9,0,0,0-4.7.84,1.22,1.22,0,0,0-.94,1.38v10.26c0,.44.15.59.57.59h1c.44,0,.59-.15.59-.59v-9.57a.41.41,0,0,1,.29-.44,9.24,9.24,0,0,1,2.85-.44c2.12,0,3.08,1,3.08,2.93v7.53c0,.44.15.59.59.59h1c.44,0,.59-.15.59-.59v-7.6C223.75,142.76,222.2,140.94,218.76,140.94Zm63.45.37h-1c-.44,0-.59.15-.59.59v9.47a.53.53,0,0,1-.37.57,9,9,0,0,1-2.78.42c-2.12,0-3.1-1-3.1-2.93V141.9c0-.44-.15-.59-.57-.59h-1c-.44,0-.59.15-.59.59v7.6c0,3.05,1.55,4.87,5,4.87a12.46,12.46,0,0,0,4.7-.84,1.21,1.21,0,0,0,.94-1.38V141.9C282.8,141.45,282.65,141.31,282.21,141.31Zm-90-.37a10.7,10.7,0,0,0-4.38.94,4.76,4.76,0,0,0-3.15-.94,10,10,0,0,0-4.16.81,1.24,1.24,0,0,0-.94,1.4v10.26c0,.44.15.59.57.59h1c.44,0,.59-.15.59-.59v-9.55a.48.48,0,0,1,.29-.52,6.5,6.5,0,0,1,2.31-.39,2.49,2.49,0,0,1,2.81,2.83v7.63c0,.44.15.59.59.59h1c.42,0,.57-.15.57-.59v-7.7a4.9,4.9,0,0,0-.37-2.09,7.17,7.17,0,0,1,2.9-.66c1.87,0,2.76.94,2.76,2.83v7.63c0,.44.15.59.59.59h1c.42,0,.57-.15.57-.59v-7.7C196.86,142.66,195.44,140.94,192.21,140.94Zm44.16-5.14h-1c-.44,0-.59.15-.59.59v5.09a12.81,12.81,0,0,0-3.44-.54c-3.35,0-5,1.82-5,5v3.47c0,3.15,1.65,4.95,5.27,4.95a11.7,11.7,0,0,0,4.4-.76c.79-.32,1-.54,1-1.35V136.38C236.94,135.94,236.79,135.79,236.37,135.79Zm-1.62,15.7c0,.27,0,.34-.34.47a8.24,8.24,0,0,1-2.63.39c-2.17,0-3.25-1-3.25-3V146c0-2,1-3.08,3.2-3.08a9.8,9.8,0,0,1,3,.54ZM205,140.94c-3.47,0-5.51,1.8-5.51,4.72v4c0,2.9,2,4.7,5.51,4.7s5.54-1.8,5.54-4.7v-4C210.49,142.73,208.5,140.94,205,140.94Zm3.35,8.74c0,1.7-1.25,2.71-3.35,2.71s-3.32-1-3.32-2.71v-4c0-1.7,1.25-2.71,3.32-2.71s3.35,1,3.35,2.71Zm56-8.74a11.9,11.9,0,0,0-4.7.84,1.22,1.22,0,0,0-.94,1.38v10.26c0,.44.15.59.57.59h1c.44,0,.59-.15.59-.59v-9.57a.41.41,0,0,1,.29-.44A9.24,9.24,0,0,1,264,143c2.12,0,3.08,1,3.08,2.93v7.53c0,.44.15.59.59.59h1c.44,0,.59-.15.59-.59v-7.6C269.32,142.76,267.77,140.94,264.32,140.94Zm-19.24,0c-3.64,0-5.56,1.94-5.56,5.27v3.05c0,3,1.62,5.12,5.46,5.12,2.83,0,4.43-1,5.29-2.53.27-.42.22-.74-.22-1l-.66-.34c-.44-.25-.66-.2-1,.22a3.64,3.64,0,0,1-3.42,1.7c-2.17,0-3.3-1.08-3.3-3v-1.18h8c.69,0,.91-.34.91-.86V146C250.64,143.13,248.87,140.94,245.08,140.94Zm3.37,5.68h-6.74v-.71c0-1.92,1.16-3.1,3.37-3.1s3.37,1.18,3.37,3.1Zm63.87-10.43-3.81,2.34c-.32.17-.29.32,0,.64l.29.34c.15.22.37.17.74,0l4.31-2.07c.39-.15.37-.32.1-.66l-.49-.59C313.09,135.84,312.72,136,312.32,136.19Z"/><polygon class="cls-1" points="520.71 186.5 518.23 186.98 517.32 188.31 518.12 192.41 519.46 193.32 521.94 192.84 522.82 191.5 522.03 187.4 520.71 186.5"/><polygon class="cls-1" points="439.88 169.42 439.45 169.93 439.58 171.35 440.44 172.08 442.82 172.4 443.69 171.37 441.28 169.32 439.88 169.42"/><polygon class="cls-1" points="451.92 172.53 450.45 172.81 447.94 176.57 448.19 177.81 449.83 178.9 452.13 178.85 454.35 175.53 454.03 173.94 451.92 172.53"/><polygon class="cls-1" points="545.22 179.5 544.89 178.84 543.67 178.35 541.48 179.44 540.96 180.97 541.69 182.44 544.91 180.85 545.22 179.5"/><path class="cls-1" d="M594.86,127.08l-27.05,9.2,4.28,2.79a83.83,83.83,0,0,1-141.6-.93l-21.07,12.53a108.34,108.34,0,0,0,183.18,1.8l4.71,3.07ZM461.26,171.25l2.1,1.17-1.23,2.21-2.1-1.17ZM423,155.34l-1.19-1.73,11.76-8.09,1.19,1.73Zm9.75,11.93,5.34-4.68.1-1.61-.93-1.05-1.69-.41-5.44,4.77-1.4-1.6L434.1,158l.12-1.6-.83-1-1.71-.42-5.44,4.77-1.39-1.58,5.67-5,.54-1.78.74-.65,1.19,1.36-.43,1.39,2,.47,1.75,2-.13,1.92,2.29.55,1.84,2.09-.2,3.09-5.89,5.17ZM441,174.6l.82-1-2.21-.22-1.9-1.61-.24-2.75,1.26-1.48,2.76-.21,3.29,2.79.82-1-.13-1.61L442,164.68l.61-.72,1.16-.12,3.61,3.06.25,3.08-5.07,6Zm7.14,10.14-4.75-3.18-.2-1.15.52-.78,4.55,3,1.57-.33,1.28-1.92-2.05.08-2.82-1.88-.5-2.5,3.48-5.2,2.73-.54,4,2.67.62,3-5.38,8.05Zm6.33-.9,4.51-8.12,1.12-.32,1.14.63-4.91,8.83Zm10.11,5,2.93-6.47-.57-1.51-1.24-.56-2,.36-2.93,6.47-1.92-.87,3.11-6.87-.24-1.85.41-.9,1.64.75L464,179l2.15-.41,2.5,1.13,1.11,2.9-3.23,7.14Zm13.74,2.5-2.74,1.43-4.43-1.4-1.44-2.75,1.7-5.39,2.76-1.42,4.44,1.4L480,186Zm10.57,4.37-2.09-.39,1.32-7-.91-1.34-1.34-.25-1.83.82-1.32,7-2.07-.39,1.4-7.41-.67-1.74.18-1,1.77.34.56,1.47,2-.91,2.7.51,1.76,2.56Zm10.41-7.41-4.2-.33-1.13.9-.06.78,5.32,2-.22,2.84-2.23,2-4.44-.35-1-.88.07-.9,4.44.35,1.16-.93.08-1-5.32-2L492,188l2.21-1.84,4.2.33.94.88Zm12.5,7.87-.51-7.08L510,188.06l-1.36.1-1.56,1.26.51,7.08-2.1.15-.55-7.52-1.09-1.51-.07-1,1.8-.13.92,1.28,1.69-1.39,2.74-.2,2.36,2,.57,7.82Zm11.55-1.81-4.57.88-2.58-1.73L515.1,188l1.75-2.57,4.57-.89,2.56,1.73,1.08,5.55Zm9.66-2.62-2.37.7L527.88,191l-1.75-5.9-1.38.41-.48-1.61,1.38-.41-.5-1.67.62-1.73,1-.3.92,3.09,2.86-.85.48,1.61-2.86.85,1.54,5.19,1.42.77,2.13-.63.27.9Zm4.49-1.63-2,.76-2.71-7-1.49-1.13-.35-.92,1.68-.65,1.22.93,1.17-1.76,1.65-.63,1.07.49.34.88-2.13.82-1.05,1.57Zm11.66-5.3-4.94,2.45-2.95-1-2.52-5.07,1-2.94,3.88-1.93,2.69.9,1,2-.72,2.55-4.15,2.06.38.77,1.53.52,4.72-2.35.42.84Zm6.63-4L551.15,174l-1.25.84-1-1.48,1.25-.84-1.47-2.18.6-3,2-1.35,1.15.24.53.78-1.81,1.22-.29,1.58,1.05,1.56,2.24-1.51,1,1.48-2.24,1.52,4.61,6.83ZM566.13,173l-.7-.85-.49,1.83-2,1.67-3.08-.29-5-6,1.62-1.34,4.52,5.47,1.61.15,1-.79.61-2.19-4.42-5.35,1.62-1.34,6.39,7.73Zm5.59-5.25-3.1,0-4.36-4.34-1,1L562,163.3l1-1L561.82,161l-.29-1.81.74-.74,2.29,2.28,2.11-2.12,1.19,1.19L565.75,162l3.84,3.82h1.62l1.57-1.58.67.66,0,1.18Zm7.49-8.48-.85-.7-.12,1.89-1.66,2-3.08.31-6.07-5,1.33-1.63,5.5,4.49,1.61-.16.79-1,.17-2.27L571.44,153l1.33-1.63,7.77,6.34Zm3.09-4.16L576,151l-1.86-.06-.82-.54,1-1.5,1.53.05-.06-2.11,1-1.47,1.16-.22.78.52-1.27,1.9,0,1.88,6,4Z"/><polygon class="cls-1" points="474.61 183.85 473.17 184.6 471.92 188.58 472.66 190.01 475.07 190.77 476.48 190.02 477.74 186.04 477.02 184.62 474.61 183.85"/><path class="cls-1" d="M507.39,54.7l-.85,4.65c-.38,2.37-1.33,3.23-3.8,3.23H475.22l-3.8,13.95h11.29c15.56,0,21.92,10.06,19.74,22.11s-11.39,21.64-27.71,21.64c-14.14,0-21.16-5.5-23-15.47-.38-2.28.28-3.32,2.75-4.18l5.5-1.8c2.28-.85,3.23-.38,3.7,2,1.14,5.5,4.74,8.35,12.91,8.35,6.74,0,12-4,13.29-11.2,1.14-6.74-2.85-10.44-9.49-10.44H460.51c-2.75,0-3.32-1.14-2.66-3.8l7.69-27.62c.95-3.51,2.37-4.65,6-4.65h33.21C507.1,51.47,507.86,52.33,507.39,54.7Z"/><path class="cls-1" d="M537.77,50c15.94,0,23.63,9.77,21.16,23.72l-4.27,24.39c-2.56,14-12.81,22.11-28.66,22.11-16,0-23.72-9.59-21.26-23.72L509,72.26C511.48,58.21,521.83,50,537.77,50Zm-1.71,11.1c-8.35,0-13.95,4.27-15.28,11.77l-4.27,24.39c-1.33,7.5,2.75,11.86,11.1,11.86s13.95-4.37,15.28-11.86l4.27-24.39C548.49,65.42,544.41,61.15,536.06,61.15Z"/><path class="cls-1" d="M574.07,85.28h-1.39c-1,0-1.27-.16-1.35-.73l-.28-1.86h-4.91l-1,1.86c-.3.57-.57.73-1.56.73h-1.47c-.59,0-.69-.26-.4-.79l7-12.59a1,1,0,0,1,1.09-.67h1.52c.55,0,.79.12.89.63l2.49,12.63C574.84,85,574.64,85.28,574.07,85.28Zm-3.88-11.11H570a11.63,11.63,0,0,1-1,2.81l-1.58,3.09h3.21L570.19,77A11.62,11.62,0,0,1,570.19,74.17Z"/><path class="cls-1" d="M588.73,72l-2.2,12.43c-.1.61-.34.81-1,.81H584c-.4,0-.55-.1-.69-.38L580.48,79a12.54,12.54,0,0,1-1-3.7h-.16a19.19,19.19,0,0,1-.22,4.44l-.83,4.73c-.12.61-.36.81-1,.81H575.8c-.61,0-.77-.2-.67-.81L577.33,72c.12-.61.34-.81,1-.81h1.52c.44,0,.63.12.77.38l2.89,6a13.11,13.11,0,0,1,1,3.54h.14a14.7,14.7,0,0,1,.14-4.38L585.6,72c.1-.61.34-.81.93-.81h1.52C588.67,71.22,588.85,71.42,588.73,72Z"/><path class="cls-1" d="M595.84,70.92c2.89,0,4.14,1.25,4.71,3,.18.53,0,.75-.57,1l-1.52.61c-.55.24-.75.14-1-.4a1.9,1.9,0,0,0-2.1-1.31c-1.64,0-2.43.42-2.59,1.37s1.13,1.29,2.73,1.47c2.26.28,4.91,1.31,4.3,4.75-.5,2.73-2.65,4.14-6.45,4.14-3.09,0-4.77-1.19-5.17-3.21-.1-.57.1-.83.69-1l1.54-.51c.57-.22.79-.12,1,.47.24.85,1,1.37,2.32,1.37,1.68,0,2.69-.44,2.89-1.56s-1-1.27-2.42-1.43c-2.34-.28-5.25-1-4.61-4.67C590,72.43,592.14,70.92,595.84,70.92Z"/><path class="cls-1" d="M403.52,71.1h.73V69l-.63.48-.29-.38,1.08-.83h.42v2.8h.71v.52h-2Z"/><path class="cls-1" d="M408.16,79.08h.73V77l-.63.48L408,77.1l1.08-.83h.42v2.8h.71v.52h-2Z"/><path class="cls-1" d="M413.86,138.55h1.49V134.3l-1.28,1-.58-.78,2.22-1.69h.86v5.74H418v1.07h-4.15Z"/><path class="cls-1" d="M383.43,119h1.28v-3.67l-1.11.85-.5-.67L385,114.1h.74V119H387V120h-3.58Z"/><path class="cls-1" d="M382.49,94.2h1.16V90.88l-1,.77L382.2,91l1.73-1.32h.67V94.2h1.14V95h-3.25Z"/><path class="cls-1" d="M407.13,111h1.16v-3.32l-1,.77-.46-.61,1.73-1.32h.67V111h1.14v.84h-3.25Z"/><path class="cls-1" d="M406,122.53a3.47,3.47,0,0,1,.11-.93,1.9,1.9,0,0,1,.31-.66,1.29,1.29,0,0,1,.48-.39,1.45,1.45,0,0,1,.62-.13,1.34,1.34,0,0,1,1.13.51,2.6,2.6,0,0,1,.4,1.59,3.49,3.49,0,0,1-.11.93,1.94,1.94,0,0,1-.31.66,1.28,1.28,0,0,1-.48.39,1.48,1.48,0,0,1-.63.13,1.31,1.31,0,0,1-1.13-.54A2.68,2.68,0,0,1,406,122.53Zm.75,0c0,.06,0,.11,0,.17s0,.11,0,.16l1.4-1.29a.65.65,0,0,0-.65-.5.62.62,0,0,0-.57.36A2.38,2.38,0,0,0,406.76,122.53Zm1.54,0q0-.09,0-.18c0-.06,0-.11,0-.17l-1.41,1.29a.66.66,0,0,0,.65.53.63.63,0,0,0,.57-.35A2.37,2.37,0,0,0,408.3,122.53Z"/><path class="cls-1" d="M397.77,81.25a3.11,3.11,0,0,1,.1-.83,1.71,1.71,0,0,1,.28-.59,1.16,1.16,0,0,1,.43-.35,1.31,1.31,0,0,1,.56-.12,1.21,1.21,0,0,1,1,.46,2.34,2.34,0,0,1,.36,1.43,3.14,3.14,0,0,1-.1.84,1.74,1.74,0,0,1-.28.59,1.15,1.15,0,0,1-.43.35,1.33,1.33,0,0,1-.56.12,1.17,1.17,0,0,1-1-.49A2.41,2.41,0,0,1,397.77,81.25Zm.68,0c0,.05,0,.1,0,.15s0,.09,0,.14l1.26-1.16a.58.58,0,0,0-.58-.45.56.56,0,0,0-.51.32A2.13,2.13,0,0,0,398.45,81.25Zm1.39,0c0-.06,0-.11,0-.16s0-.1,0-.15l-1.27,1.16a.6.6,0,0,0,.58.47.56.56,0,0,0,.51-.32A2.13,2.13,0,0,0,399.84,81.25Z"/><path class="cls-1" d="M410.29,73.29a2.7,2.7,0,0,1,.09-.72,1.48,1.48,0,0,1,.24-.51,1,1,0,0,1,.37-.3,1.13,1.13,0,0,1,.48-.1,1,1,0,0,1,.88.4,2,2,0,0,1,.31,1.24,2.71,2.71,0,0,1-.09.72,1.51,1.51,0,0,1-.24.51,1,1,0,0,1-.38.31,1.15,1.15,0,0,1-.49.1,1,1,0,0,1-.88-.42A2.08,2.08,0,0,1,410.29,73.29Zm.59,0s0,.09,0,.13,0,.08,0,.12l1.09-1a.51.51,0,0,0-.51-.39.48.48,0,0,0-.44.28A1.85,1.85,0,0,0,410.88,73.29Zm1.2,0s0-.09,0-.14,0-.09,0-.13L411,74a.51.51,0,0,0,.51.41.49.49,0,0,0,.44-.28A1.85,1.85,0,0,0,412.08,73.29Z"/><path class="cls-1" d="M393.81,135.43a6.37,6.37,0,0,1,.2-1.7,3.5,3.5,0,0,1,.57-1.21,2.38,2.38,0,0,1,.88-.72,2.67,2.67,0,0,1,1.14-.24,2.46,2.46,0,0,1,2.07.94,4.78,4.78,0,0,1,.73,2.92,6.41,6.41,0,0,1-.2,1.71,3.56,3.56,0,0,1-.57,1.21,2.34,2.34,0,0,1-.89.72,2.71,2.71,0,0,1-1.15.24,2.4,2.4,0,0,1-2.07-1A4.91,4.91,0,0,1,393.81,135.43Zm1.38,0c0,.11,0,.21,0,.3s0,.19,0,.29l2.58-2.37a1.19,1.19,0,0,0-1.19-.92,1.14,1.14,0,0,0-1,.65A4.36,4.36,0,0,0,395.2,135.43Zm2.83,0q0-.17,0-.32c0-.1,0-.2,0-.3l-2.59,2.37a1.22,1.22,0,0,0,1.19,1,1.15,1.15,0,0,0,1-.65A4.36,4.36,0,0,0,398,135.43Z"/><path class="cls-1" d="M404.16,94.36a4.07,4.07,0,0,1,.13-1.09,2.24,2.24,0,0,1,.37-.77,1.52,1.52,0,0,1,.56-.46,1.71,1.71,0,0,1,.73-.15,1.57,1.57,0,0,1,1.32.6,3.05,3.05,0,0,1,.46,1.87,4.1,4.1,0,0,1-.13,1.09,2.28,2.28,0,0,1-.37.78,1.5,1.5,0,0,1-.57.46,1.73,1.73,0,0,1-.73.15,1.53,1.53,0,0,1-1.33-.64A3.14,3.14,0,0,1,404.16,94.36Zm.88,0c0,.07,0,.13,0,.19s0,.12,0,.19l1.65-1.52a.76.76,0,0,0-.76-.59.73.73,0,0,0-.66.42A2.79,2.79,0,0,0,405,94.36Zm1.81,0c0-.07,0-.14,0-.21s0-.13,0-.19l-1.65,1.52a.78.78,0,0,0,.76.62.73.73,0,0,0,.67-.42A2.79,2.79,0,0,0,406.86,94.36Z"/><path class="cls-1" d="M392.23,106.13a4.56,4.56,0,0,1,.15-1.22,2.51,2.51,0,0,1,.41-.87,1.7,1.7,0,0,1,.63-.51,1.91,1.91,0,0,1,.82-.17,1.76,1.76,0,0,1,1.49.67,3.42,3.42,0,0,1,.52,2.09,4.59,4.59,0,0,1-.15,1.22,2.55,2.55,0,0,1-.41.87,1.68,1.68,0,0,1-.64.52,1.94,1.94,0,0,1-.82.17,1.72,1.72,0,0,1-1.49-.71A3.52,3.52,0,0,1,392.23,106.13Zm1,0c0,.08,0,.15,0,.22s0,.14,0,.21l1.85-1.7a.85.85,0,0,0-.85-.66.81.81,0,0,0-.75.47A3.12,3.12,0,0,0,393.22,106.13Zm2,0q0-.12,0-.23c0-.07,0-.15,0-.22l-1.85,1.7a.87.87,0,0,0,.86.69.82.82,0,0,0,.75-.47A3.12,3.12,0,0,0,395.25,106.13Z"/><path class="cls-1" d="M481,0a1.56,1.56,0,0,0-1.55,1.86l-28.19,8.7a2.1,2.1,0,0,0-4.05.8,2.08,2.08,0,0,0,.1.62L434.17,25.17a1.48,1.48,0,1,0-1.78,2.36l-1.65,10.09-.19,0a2.35,2.35,0,0,0-2.34,2.23l-4.92.14a1.48,1.48,0,1,0-2.18,1.73L413,59.29a2.35,2.35,0,1,0-.39,4.51l4.72,17.85a1.48,1.48,0,0,0-.18,2.66l-2,4.68L415,89a1.38,1.38,0,1,0,0,2.76h.08l7.66,12.84,11.38-12.92a1.2,1.2,0,0,0,.44.09,1.21,1.21,0,0,0,.08-2.42L433,80.93a1.57,1.57,0,0,0-.28-3.05l.55-39.15,19.78-10.17a2.35,2.35,0,1,0,3.35-3.15l4.8-8.11a2.33,2.33,0,0,0,1,.25,2.34,2.34,0,0,0,2-3.57l2.32-1.68,13.34-9.65A1.58,1.58,0,1,0,481,0ZM449.35,13.46a2.07,2.07,0,0,0,.31,0l4.39,11.77A2.34,2.34,0,0,0,452.72,27l-18-.8a1.47,1.47,0,0,0-.31-.81l13.08-13.08A2.1,2.1,0,0,0,449.35,13.46ZM418.94,82l5.14-6.85a2.33,2.33,0,0,0,2.9-.31l4.27,3.7a1.53,1.53,0,0,0-.28,1.29L419.3,82.51A1.48,1.48,0,0,0,418.94,82Zm-5.07-22.14,8.95-10.52,2.1,21.51a2.34,2.34,0,0,0-1.22.62l-9.62-8.53a2.33,2.33,0,0,0-.21-3.08Zm17.63,18.41-4.29-3.71a2.34,2.34,0,0,0-1.89-3.74h0l-2.14-21.86.63-.74L431.93,78A1.57,1.57,0,0,0,431.51,78.23ZM423.11,48.4l-.41-4.24,1,3.58Zm9.18,29.48-8.2-30.05,5.08-6A2.34,2.34,0,0,0,432.88,40l-.53,37.86ZM428.21,40.2a2.34,2.34,0,0,0,.67,1.41L424,47.39,422.48,42v-.15a1.48,1.48,0,0,0,.89-1.36s0-.06,0-.1Zm-6.78,1.65a1.47,1.47,0,0,0,.44.07l.21,0,0,.12.66,6.76-9.18,10.8-.23-.14ZM413,63.7a2.34,2.34,0,0,0,.85-.52l9.62,8.53a2.32,2.32,0,0,0,.32,3.17l-5.15,6.86a1.47,1.47,0,0,0-.73-.2l-.2,0Zm2.49,27.95a1.38,1.38,0,0,0,.08-2.56l1.95-4.63a1.47,1.47,0,0,0,.4.06H418l4.36,18.62Zm7.4,12.21-4.55-19.41a1.48,1.48,0,0,0,.83-.64l14.23,6.47a1.2,1.2,0,0,0,.42,1.18Zm11.4-14.51a1.21,1.21,0,0,0-.76.58l-14.21-6.46a1.13,1.13,0,0,0,.06-.59l11.73-2.74a1.57,1.57,0,0,0,1.41.88h.12ZM432.88,39.9a2.34,2.34,0,0,0-.18-.88l.2-.1Zm-.35-1.19a2.35,2.35,0,0,0-1.43-1l1.63-10a1.46,1.46,0,0,0,.33.08l-.15,10.72Zm.75-.39.15-10.53a1.48,1.48,0,0,0,1.29-1.2l18,.8a2.35,2.35,0,0,0,.17.83Zm22.8-13.11a2.21,2.21,0,0,0-1.67-.15L450,13.34a2.1,2.1,0,0,0,1.39-1.56l8.54,2.85a2.3,2.3,0,0,0,.93,2.49Zm11.81-14.36L464,13.68a2.34,2.34,0,0,0-3.95.6l-8.61-2.87s0,0,0-.05a2.11,2.11,0,0,0,0-.44l28.19-8.7.07.13Z"/><polygon class="cls-1" points="465 153.99 463.96 154.18 461.31 158.51 461.62 159.53 463.88 160.91 464.92 160.72 467.57 156.39 467.26 155.37 465 153.99"/><polygon class="cls-1" points="436.45 125.48 435.12 126.19 434.92 127.05 436 129.08 437.84 128.09 438.05 127.25 437.27 125.8 436.45 125.48"/><polygon class="cls-1" points="436.77 134.21 436.65 135.14 437.75 136.79 438.66 137.04 439.74 136.32 439.87 135.38 438.38 133.14 436.77 134.21"/><polygon class="cls-1" points="514.88 163.73 511.79 164.07 510.95 164.99 511.6 170.93 512.62 171.65 515.71 171.31 516.55 170.39 515.9 164.45 514.88 163.73"/><polygon class="cls-1" points="525.96 165.83 522.48 166.66 523.07 169.15 524.17 169.74 526.74 169.13 527.48 168.11 527.08 166.43 525.96 165.83"/><path class="cls-1" d="M535.57,144.62l2,2.82A67.09,67.09,0,0,1,434.75,90.68l-12,13.69-8-13.46a87.12,87.12,0,0,0,134.51,72.88l2,2.78,6.2-20.95Zm-106.5-20.85,6-2.66-.46-1,.6-.27.73.28.83,1.87-7.09,3.15Zm3.56,7.2-1.9-3.55.23-.75.58-.31,1.81,3.39.82.3,1.27-.68-.74-.23-1.17-2.2.49-1.84,2.19-1.17,1.8.62,1.48,2.77-.48,1.85-4.55,2.43Zm4.49,7.19-2-3,.32-2,4.6-3.07,2,.48,2.21,3.31-.16.82-.58.39-2.1-3.16-.9-.24-1.55,1,.83.17,1.6,2.4-.32,2-2,1.3Zm3,4-.89-1.1.54-.44,7.39-.92-3-3.66.54-.44.84.09,3.6,4.42-1.21,1Zm6.91,6.57-.18-1.54,3.47-.37.31-3.46,1.53.14-.43,4.71Zm10.37,9-.89.11-4.72-3.65.85-1.1,6.43-.81.53-.68-.12-.93-3-2.28.46-.59.9-.11,3.12,2.41.3,2.1-1.2,1.55,0,0,0,0-5.74.67,3.51,2.71Zm6.45,4.85-3.78-2.31-.64-2.23,3.27-5.35,2.28-.45,3.78,2.31.62,2.23-3.27,5.35Zm4.19,2.22,3.51-7.14-1.22-.6.35-.71.9-.31,2.23,1.1-4.16,8.46Zm13.44-3.05-7.56,5.73-1.58-.62.31-.78,7.19-5.32-5.28-2.07.31-.78.93-.4,6.38,2.5Zm3.17,8.38-1.05-1.39,3.15-2.33-1.67-3.54,1.57-.73,2.27,4.81Zm6.09,1.29-1.22-1.38,3.13-2.71-2-3.58,1.59-.9,2.77,4.88Zm16.63,1.5-.81.77-7.45-.19,0-1.74,5.88-5.56,0-1.07-.8-.84-4.67-.12,0-.93.83-.77,4.92.12,1.85,1.9-.06,2.44h0l0,0-5.29,4.91,5.54.14Zm9.56-.06-5.18.57-2.2-1.62-.8-7.33,1.79-2.06,5.18-.57,2.18,1.63.8,7.33Zm11.22-2.34-4.62,1.09-2.38-1.34-1.7-7.18,1.53-2.26,5.16-1.22,1,.59.21.91-4.92,1.16-.72,1,.57,2.42.59-1,3.74-.89,2.38,1.34.72,3Zm6.46-2.18-1.75.69-.34-.87,1.85-9.76-5.87,2.29-.34-.87.45-1,7.09-2.77.76,1.94Z"/></g></g></svg>