<?xml version="1.0" encoding="UTF-8" standalone="no"?>
<!-- Created with Inkscape (http://www.inkscape.org/) -->

<svg
   xmlns:dc="http://purl.org/dc/elements/1.1/"
   xmlns:cc="http://creativecommons.org/ns#"
   xmlns:rdf="http://www.w3.org/1999/02/22-rdf-syntax-ns#"
   xmlns:svg="http://www.w3.org/2000/svg"
   xmlns="http://www.w3.org/2000/svg"
   xmlns:sodipodi="http://sodipodi.sourceforge.net/DTD/sodipodi-0.dtd"
   xmlns:inkscape="http://www.inkscape.org/namespaces/inkscape"
   width="49.767902mm"
   height="52.905071mm"
   viewBox="0 0 49.767902 52.905071"
   version="1.1"
   id="svg4195"
   inkscape:version="0.92.2 2405546, 2018-03-11"
   sodipodi:docname="pingcap-light.svg">
  <defs
     id="defs4189" />
  <sodipodi:namedview
     id="base"
     pagecolor="#ffffff"
     bordercolor="#666666"
     borderopacity="1.0"
     inkscape:pageopacity="0.0"
     inkscape:pageshadow="2"
     inkscape:zoom="1.979899"
     inkscape:cx="116.07205"
     inkscape:cy="-5.945836"
     inkscape:document-units="mm"
     inkscape:current-layer="layer1"
     showgrid="false"
     fit-margin-top="3"
     fit-margin-left="3"
     fit-margin-right="3"
     fit-margin-bottom="3"
     inkscape:window-width="1238"
     inkscape:window-height="2050"
     inkscape:window-x="1290"
     inkscape:window-y="20"
     inkscape:window-maximized="0" />
  <metadata
     id="metadata4192">
    <rdf:RDF>
      <cc:Work
         rdf:about="">
        <dc:format>image/svg+xml</dc:format>
        <dc:type
           rdf:resource="http://purl.org/dc/dcmitype/StillImage" />
        <dc:title></dc:title>
      </cc:Work>
    </rdf:RDF>
  </metadata>
  <g
     inkscape:label="Layer 1"
     inkscape:groupmode="layer"
     id="layer1"
     transform="translate(-83.97319,-117.08914)">
    <g
       transform="matrix(0.26458333,0,0,0.26458333,-23.264928,85.98778)"
       id="g4062">
      <g
         id="g4052">
        <path
           d="m 518.46,278.63 h 0.006 c -0.207,0.456 -0.43,0.88 -0.684,1.252 -1.369,2.039 -3.355,3.055 -5.959,3.055 -2.832,0 -4.97,-0.96 -6.397,-2.905 -1.429,-1.938 -2.141,-4.469 -2.141,-7.58 0,-3.812 0.79,-6.636 2.374,-8.478 1.585,-1.84 3.659,-2.764 6.234,-2.764 2.104,0 3.747,0.504 4.915,1.505 0.48,0.417 0.886,0.902 1.233,1.442 h 3.748 c -0.42,-1.224 -1.104,-2.361 -2.196,-3.418 -1.838,-1.777 -4.417,-2.661 -7.742,-2.661 -3.904,0 -6.964,1.368 -9.182,4.092 -2.054,2.518 -3.08,5.738 -3.08,9.661 0,5.171 1.367,8.991 4.101,11.475 2.071,1.867 4.644,2.808 7.696,2.808 3.543,0 6.364,-1.143 8.444,-3.429 1.08,-1.175 1.859,-2.529 2.378,-4.055 h 0.005 l 0.518,-1.424 h -3.691 z"
           id="path4038"
           inkscape:connector-curvature="0"
           style="fill:#ffffff" />
        <polygon
           points="537.627,258.802 533.557,258.802 523.538,285.402 527.235,285.402 535.438,262.752 539.413,274.16 533.526,274.16 532.406,277.206 540.465,277.206 543.331,285.402 547.28,285.402 "
           id="polygon4040"
           style="fill:#ffffff" />
        <path
           d="m 567.224,271.852 c -1.283,1.538 -3.262,2.309 -5.925,2.309 h -6.051 v -3.044 h 4.862 c 1.604,0 2.911,-0.347 3.915,-1.028 0.999,-0.692 1.501,-1.907 1.501,-3.641 0,-1.96 -0.719,-3.285 -2.152,-3.989 -0.799,-0.37 -1.884,-0.558 -3.264,-0.558 h -7.117 v 23.502 h -3.601 v -26.601 h 11.901 c 2.354,0 4.255,0.667 5.695,1.999 1.447,1.334 2.177,3.208 2.177,5.625 0.001,2.076 -0.646,3.888 -1.941,5.426 z"
           id="path4042"
           inkscape:connector-curvature="0"
           style="fill:#ffffff" />
        <path
           d="m 429.553,285.402 v -26.699 h 9.751 c 1.731,0 3.157,0.194 4.286,0.591 1.121,0.397 2.021,0.944 2.67,1.631 0.653,0.698 1.115,1.491 1.372,2.396 0.254,0.896 0.389,1.847 0.389,2.835 0,1.485 -0.307,2.708 -0.909,3.67 -0.603,0.967 -1.39,1.728 -2.35,2.282 -0.967,0.559 -2.06,0.945 -3.285,1.174 -1.223,0.217 -2.453,0.328 -3.694,0.328 h -5.707 v 11.792 z m 8.307,-13.938 c 1.19,0 2.251,-0.077 3.188,-0.228 0.942,-0.147 1.735,-0.426 2.396,-0.835 0.652,-0.405 1.16,-0.965 1.518,-1.665 0.359,-0.706 0.539,-1.631 0.539,-2.764 0,-1.679 -0.555,-2.953 -1.65,-3.817 -1.102,-0.871 -2.852,-1.3 -5.248,-1.3 h -6.526 v 10.608 h 5.783 z"
           id="path4044"
           inkscape:connector-curvature="0"
           style="fill:#ffffff" />
        <path
           d="m 451.636,262.003 v -3.3 h 2.45 v 3.3 z m 0.111,23.399 v -19.206 h 2.229 v 19.206 z"
           id="path4046"
           inkscape:connector-curvature="0"
           style="fill:#ffffff" />
        <path
           d="m 459.911,285.402 h -2.223 v -19.206 h 2.223 v 2.668 c 0.894,-0.937 1.812,-1.711 2.764,-2.297 0.952,-0.595 2.096,-0.896 3.432,-0.896 1.183,0 2.286,0.208 3.302,0.617 1.013,0.404 1.862,1.118 2.557,2.133 0.463,0.69 0.747,1.398 0.837,2.128 0.084,0.733 0.129,1.493 0.129,2.281 v 12.571 h -2.227 v -12.535 c 0,-1.73 -0.384,-3.027 -1.149,-3.896 -0.764,-0.859 -2.043,-1.291 -3.82,-1.291 -0.691,0 -1.319,0.102 -1.888,0.312 -0.572,0.214 -1.082,0.49 -1.546,0.842 -0.457,0.34 -0.847,0.736 -1.162,1.179 -0.322,0.447 -0.575,0.915 -0.749,1.41 -0.217,0.621 -0.36,1.211 -0.407,1.781 -0.048,0.57 -0.071,1.185 -0.071,1.854 v 10.345 z"
           id="path4048"
           inkscape:connector-curvature="0"
           style="fill:#ffffff" />
        <path
           d="m 491.958,266.196 h 2.227 v 17.352 c 0,1.287 -0.13,2.521 -0.392,3.689 -0.256,1.18 -0.72,2.211 -1.389,3.102 -0.669,0.89 -1.584,1.596 -2.743,2.128 -1.164,0.535 -2.652,0.795 -4.487,0.795 -1.413,0 -2.624,-0.181 -3.635,-0.532 -1.017,-0.363 -1.844,-0.811 -2.487,-1.358 -0.639,-0.539 -1.125,-1.142 -1.462,-1.795 -0.333,-0.656 -0.513,-1.266 -0.541,-1.842 h 2.37 c 0.175,0.728 0.453,1.307 0.821,1.766 0.368,0.458 0.812,0.816 1.314,1.078 0.51,0.254 1.074,0.439 1.691,0.537 0.616,0.099 1.254,0.15 1.928,0.15 1.506,0 2.722,-0.261 3.633,-0.783 0.92,-0.518 1.606,-1.202 2.072,-2.039 0.478,-0.84 0.773,-1.791 0.912,-2.854 0.139,-1.064 0.193,-2.148 0.167,-3.264 -0.721,1.186 -1.702,2.086 -2.944,2.69 -1.251,0.606 -2.557,0.904 -3.916,0.904 -1.459,0 -2.725,-0.273 -3.803,-0.833 -1.071,-0.556 -1.961,-1.298 -2.669,-2.224 -0.699,-0.928 -1.233,-2.008 -1.577,-3.249 -0.341,-1.232 -0.515,-2.515 -0.515,-3.853 0,-1.409 0.157,-2.734 0.48,-3.969 0.322,-1.237 0.835,-2.305 1.538,-3.209 0.71,-0.901 1.601,-1.617 2.689,-2.129 1.085,-0.519 2.412,-0.783 3.971,-0.783 0.614,0 1.244,0.091 1.89,0.265 0.638,0.171 1.267,0.42 1.874,0.739 0.603,0.322 1.157,0.731 1.666,1.224 0.501,0.495 0.925,1.05 1.239,1.67 h 0.076 v -3.373 z m 0,9.677 c 0,-1.165 -0.142,-2.243 -0.422,-3.244 -0.29,-1.002 -0.701,-1.868 -1.238,-2.599 -0.545,-0.731 -1.229,-1.301 -2.049,-1.725 -0.812,-0.42 -1.744,-0.626 -2.782,-0.626 -0.937,0 -1.804,0.166 -2.594,0.501 -0.791,0.33 -1.483,0.821 -2.079,1.465 -0.59,0.638 -1.055,1.424 -1.391,2.356 -0.331,0.926 -0.496,1.997 -0.496,3.203 -0.05,1.21 0.047,2.343 0.297,3.397 0.245,1.049 0.637,1.97 1.184,2.756 0.544,0.796 1.232,1.419 2.078,1.874 0.843,0.461 1.842,0.69 3.001,0.69 1.015,0 1.929,-0.215 2.729,-0.653 0.808,-0.432 1.484,-1.012 2.037,-1.738 0.559,-0.732 0.988,-1.59 1.285,-2.565 0.292,-0.972 0.44,-2.001 0.44,-3.092 z"
           id="path4050"
           inkscape:connector-curvature="0"
           style="fill:#ffffff" />
      </g>
      <g
         id="g4060">
        <path
           d="m 483.004,209.708 c -1.625,0 -2.947,-1.32 -2.947,-2.944 v -53.208 l -10.06,-2.658 -0.524,-0.138 c -0.108,-0.016 -0.217,-0.031 -0.327,-0.031 -1.215,0 -2.201,0.983 -2.201,2.199 v 90.809 c 0,1.215 0.986,2.2 2.201,2.2 0.139,0 0.271,-0.015 0.401,-0.039 l 0.185,-0.049 46.147,-12.239 0.578,-0.151 c 1.635,-0.559 2.813,-2.107 2.813,-3.937 v -29.335 l -35.687,9.464 c -0.19,0.039 -0.386,0.057 -0.579,0.057 z"
           id="path4054"
           inkscape:connector-curvature="0"
           style="fill:#ffffff" />
        <path
           d="m 538.924,156.521 -0.688,-0.18 -54.394,-14.382 -0.509,-0.135 c -0.106,-0.017 -0.217,-0.033 -0.33,-0.033 -1.215,0 -2.2,0.985 -2.2,2.2 v 8.99 l 36.092,9.538 c 1.896,0.743 3.121,2.535 3.121,4.566 v 32.131 l 18.235,-4.838 0.658,-0.177 c 1.616,-0.573 2.774,-2.108 2.774,-3.917 v -29.851 c 0.002,-1.803 -1.15,-3.337 -2.759,-3.912 z"
           id="path4056"
           inkscape:connector-curvature="0"
           style="fill:#ffffff" />
        <path
           d="m 516.39,163.923 -34.841,-9.203 v 52.043 c 0,0.802 0.652,1.454 1.455,1.454 0.099,0 0.194,-0.012 0.286,-0.029 l 35.233,-9.348 v -31.755 c 0,-1.398 -0.835,-2.635 -2.133,-3.162 z"
           id="path4058"
           inkscape:connector-curvature="0"
           style="fill:#ffffff" />
      </g>
    </g>
  </g>
</svg>
